<svg id="Layer_1" data-name="Layer 1" xmlns="http://www.w3.org/2000/svg" viewBox="0 0 70.83 20.31"><defs><style>.cls-1{fill:#7310ec;}</style></defs><title>logo_Artboard 1</title><path class="cls-1" d="M5.42,19.26,1.31,7H5.25L9.16,19.26Zm4.51-.53L8.15,13.21,10.05,7h3.84Z"/><path d="M21.16,19.45a15.17,15.17,0,0,1-2.86-.22,4.51,4.51,0,0,1-1.78-.68,2.92,2.92,0,0,1-1-1.21,5.9,5.9,0,0,1-.41-1.78c0-.69-.08-1.49-.08-2.4s0-1.78.11-2.5a5.15,5.15,0,0,1,.48-1.82,2.94,2.94,0,0,1,1.14-1.21A5.32,5.32,0,0,1,18.86,7V14.1a9,9,0,0,0,.07,1.3,1.08,1.08,0,0,0,.38.74,2.07,2.07,0,0,0,1,.32,14.15,14.15,0,0,0,1.8.08c.31,0,.67,0,1.08,0l1.31-.07,1.28-.1V19c-.35.08-.78.15-1.28.22s-1,.11-1.62.14S21.7,19.45,21.16,19.45ZM19.74,14.1v-2H22.6V12a9.15,9.15,0,0,0-.08-1.33,1.65,1.65,0,0,0-.29-.74.91.91,0,0,0-.57-.32,5.67,5.67,0,0,0-.91-.06,4.73,4.73,0,0,0-.56,0,1.89,1.89,0,0,0-.45.09V6.87c.16,0,.33,0,.51,0l.53,0a12.29,12.29,0,0,1,2.61.23,4,4,0,0,1,1.6.7A2.56,2.56,0,0,1,25.83,9a7.18,7.18,0,0,1,.32,1.79c.05.69.07,1.5.07,2.41v.94Z"/><path d="M28.82,19.26V1.42H32.7V19.26Z"/><path d="M34.67,9.94V7H36.9V3.46h3.89V7h2.67V9.94Zm2.23,9.32v-8.5h3.89v8.5Z"/><path d="M51,19.45a15.17,15.17,0,0,1-2.86-.22,4.51,4.51,0,0,1-1.78-.68,2.92,2.92,0,0,1-1-1.21A5.9,5.9,0,0,1,45,15.56c0-.69-.08-1.49-.08-2.4s0-1.78.11-2.5a5.15,5.15,0,0,1,.48-1.82,2.94,2.94,0,0,1,1.14-1.21A5.32,5.32,0,0,1,48.74,7V14.1a9,9,0,0,0,.07,1.3,1.08,1.08,0,0,0,.38.74,2.07,2.07,0,0,0,1,.32,14.15,14.15,0,0,0,1.8.08c.31,0,.67,0,1.08,0l1.31-.07,1.28-.1V19c-.35.08-.78.15-1.28.22s-1,.11-1.62.14S51.58,19.45,51,19.45ZM49.62,14.1v-2h2.86V12a9.15,9.15,0,0,0-.08-1.33,1.65,1.65,0,0,0-.29-.74.91.91,0,0,0-.57-.32,5.67,5.67,0,0,0-.91-.06,4.73,4.73,0,0,0-.56,0,1.89,1.89,0,0,0-.45.09V6.87c.16,0,.33,0,.51,0l.53,0a12.29,12.29,0,0,1,2.61.23,4,4,0,0,1,1.6.7A2.56,2.56,0,0,1,55.71,9,7.18,7.18,0,0,1,56,10.75c0,.69.07,1.5.07,2.41v.94Z"/><path d="M58.24,19.26V16.52l4.85-5.69h4.75l-7.27,8.43Zm.29-9.32V7H68.75V9.75l-.17.19Zm3.24,9.32,2.54-2.93H68.8v2.93Z"/></svg>